<svg fill="none" height="69" width="232" xmlns="http://www.w3.org/2000/svg">
    <path d="M20.367 47.234H9.633v9.047h12.703V62H2.742V27.875H22.29v5.742H9.633v8.063h10.734zm18.8-7.64l4.595-11.719h7.898l-8.016 16.922L51.848 62h-7.993l-4.687-11.93L34.504 62h-7.992l8.203-17.203-8.04-16.922h7.9zM64.39 50v12H57.5V27.875h11.625c3.375 0 6.062 1.047 8.062 3.14 2.016 2.094 3.024 4.813 3.024 8.157 0 3.344-.993 5.984-2.977 7.922C75.25 49.03 72.5 50 68.984 50zm0-5.742h4.735c1.312 0 2.328-.43 3.047-1.29.718-.859 1.078-2.109 1.078-3.75 0-1.702-.368-3.054-1.102-4.054-.734-1.016-1.719-1.531-2.953-1.547H64.39zm34.715 10.758h-9.398L87.878 62H80.59l10.664-34.125h6.305L108.293 62h-7.36zm-7.898-5.743h6.375L94.394 37.11zM137.523 62h-6.891l-10.078-22.383V62h-6.891V27.875h6.891l10.102 22.406V27.875h6.867zm7.691 0V27.875h9.024c3.984 0 7.156 1.266 9.515 3.797 2.375 2.531 3.586 6 3.633 10.406v5.531c0 4.485-1.188 8.008-3.563 10.57-2.359 2.548-5.617 3.821-9.773 3.821zm6.891-28.383v22.664h2.062c2.297 0 3.914-.601 4.852-1.804.937-1.22 1.429-3.313 1.476-6.282v-5.93c0-3.187-.445-5.406-1.336-6.656-.89-1.265-2.406-1.93-4.546-1.992z"
          fill="#dfdfdf"/>
    <path d="M20.367 47.234v.5h.5v-.5zm-10.734 0v-.5h-.5v.5zm0 9.047h-.5v.5h.5zm12.703 0h.5v-.5h-.5zm0 5.719v.5h.5V62zM2.742 62h-.5v.5h.5zm0-34.125v-.5h-.5v.5zm19.547 0h.5v-.5h-.5zm0 5.742v.5h.5v-.5zm-12.656 0v-.5h-.5v.5zm0 8.063h-.5v.5h.5zm10.734 0h.5v-.5h-.5zm0 5.054H9.633v1h10.734zm-11.234.5v9.047h1v-9.047zm.5 9.547h12.703v-1H9.633zm12.203-.5V62h1v-5.719zm.5 5.219H2.742v1h19.594zM3.242 62V27.875h-1V62zm-.5-33.625H22.29v-1H2.742zm19.047-.5v5.742h1v-5.742zm.5 5.242H9.633v1h12.656zm-13.156.5v8.063h1v-8.063zm.5 8.563h10.734v-1H9.633zm10.234-.5v5.554h1V41.68zm19.3-2.086l-.465.182.466 1.188.465-1.188zm4.595-11.719v-.5h-.341l-.125.317zm7.898 0l.452.214.338-.714h-.79zm-8.016 16.922l-.451-.214-.102.215.102.214zM51.848 62v.5h.792l-.341-.715zm-7.993 0l-.465.183.125.317h.34zm-4.687-11.93l.465-.183-.466-1.187-.465 1.188zM34.504 62v.5h.341l.124-.318zm-7.992 0l-.452-.215-.34.715h.792zm8.203-17.203l.451.215.102-.215-.102-.215zm-8.04-16.922v-.5h-.79l.339.715zm7.9 0l.465-.183-.125-.317h-.34zm5.058 11.901l4.594-11.719-.93-.365-4.595 11.72zm4.129-11.401h7.898v-1h-7.898zm7.446-.714l-8.015 16.922.903.428 8.016-16.922zm-8.015 17.351l8.203 17.203.903-.43-8.203-17.203zM51.848 61.5h-7.993v1h7.993zm-7.527.317l-4.688-11.93-.93.366 4.687 11.93zm-5.619-11.929l-4.664 11.93.931.364 4.664-11.93zM34.504 61.5h-7.992v1h7.992zm-7.541.715l8.203-17.203-.903-.43-8.203 17.203zm8.203-17.633L27.127 27.66l-.903.43 8.04 16.921zm-8.49-16.207h7.898v-1h-7.898zm7.433-.318l4.593 11.72.931-.366-4.593-11.719zM64.39 50v-.5h-.5v.5zm0 12v.5h.5V62zm-6.89 0H57v.5h.5zm0-34.125v-.5H57v.5zm19.687 3.14l-.361.346.001.001zM64.39 44.259h-.5v.5h.5zm7.758-9.094l-.405.293.002.003zm-2.953-1.547l.006-.5h-.006zm-4.805 0v-.5h-.5v.5zM63.89 50v12h1V50zm.5 11.5H57.5v1h6.89zM58 62V27.875h-1V62zm-.5-33.625h11.625v-1H57.5zm11.625 0c3.263 0 5.81 1.007 7.7 2.986l.724-.69c-2.11-2.21-4.937-3.296-8.424-3.296zm7.702 2.987c1.912 1.987 2.884 4.574 2.884 7.81h1c0-3.452-1.045-6.302-3.164-8.503zm2.884 7.81c0 3.239-.958 5.74-2.826 7.564l.698.715c2.1-2.05 3.128-4.83 3.128-8.28zm-2.826 7.564c-1.868 1.824-4.48 2.764-7.9 2.764v1c3.609 0 6.497-.997 8.598-3.049zm-7.9 2.764H64.39v1h4.594zm-4.595-4.742h4.735v-1H64.39zm4.735 0c1.432 0 2.6-.476 3.43-1.469l-.767-.641c-.607.726-1.47 1.11-2.663 1.11zm3.43-1.469c.822-.982 1.195-2.365 1.195-4.07h-1c0 1.576-.347 2.693-.962 3.429zm1.195-4.07c0-1.77-.382-3.238-1.199-4.35l-.806.591c.652.887 1.005 2.123 1.005 3.759zm-1.197-4.348c-.825-1.141-1.956-1.736-3.352-1.754l-.012 1c1.073.014 1.91.45 2.554 1.34zm-3.358-1.754H64.39v1h4.805zm-5.305.5v10.64h1v-10.64zm35.215 21.399l.484-.127-.098-.373h-.386zm-9.398 0v-.5h-.386l-.098.373zM87.878 62v.5h.386l.098-.373zm-7.289 0l-.477-.15-.203.65h.68zm10.664-34.125v-.5h-.367l-.11.35zm6.305 0l.477-.15-.11-.35h-.367zM108.293 62v.5h.681l-.205-.65zm-7.36 0l-.484.127.098.373h.386zm-9.726-12.727l-.484-.126-.164.626h.648zm6.375 0v.5h.648l-.165-.626zM94.394 37.11l.484-.126-.484-1.846-.484 1.846zm4.711 17.407h-9.398v1h9.398zm-9.882.373l-1.828 6.984.967.254 1.828-6.985zM87.878 61.5H80.59v1h7.29zm-6.811.65L91.73 28.023l-.955-.298L80.112 61.85zm10.186-33.775h6.305v-1h-6.305zm5.828-.35l10.735 34.125.953-.3-10.734-34.125zM108.293 61.5h-7.36v1h7.36zm-6.876.373l-1.828-6.984-.968.253 1.828 6.985zm-10.21-12.1h6.375v-1h-6.375zm6.858-.626l-3.187-12.164-.968.253L97.098 49.4zM93.91 36.983l-3.187 12.164.967.253 3.188-12.164zM137.523 62v.5h.5V62zm-6.891 0l-.456.205.133.295h.323zm-10.078-22.383l.456-.205-.956.205zm0 22.383v.5h.5V62zm-6.891 0h-.5v.5h.5zm0-34.125v-.5h-.5v.5zm6.891 0l.456-.206-.133-.294h-.323zm10.102 22.406l-.456.206.956-.206zm0-22.406v-.5h-.5v.5zm6.867 0h.5v-.5h-.5zm0 33.625h-6.891v1h6.891zm-6.435.295L121.01 39.412l-.912.41 10.078 22.383zm-11.034-22.178V62h1V39.617zm.5 21.883h-6.891v1h6.891zm-6.391.5V27.875h-1V62zm-.5-33.625h6.891v-1h-6.891zm6.435-.295L130.2 50.487l.911-.411-10.101-22.407zm11.058 22.201V27.875h-1v22.406zm-.5-21.906h6.867v-1h-6.867zm6.367-.5V62h1V27.875zM145.214 62h-.5v.5h.5zm0-34.125v-.5h-.5v.5zm18.539 3.797l-.366.34.002.002zm3.633 10.406h.5v-.005zm-3.563 16.102l-.366-.34zm-11.718-24.563v-.5h-.5v.5zm0 22.664h-.5v.5h.5zm6.914-1.804l.394.307.002-.003zm1.476-6.282l.5.008v-.008zm-1.336-12.586l-.409.288.002.002zm-4.546-1.992l.014-.5h-.014zM145.714 62V27.875h-1V62zm-.5-33.625h9.024v-1h-9.024zm9.024 0c3.868 0 6.899 1.224 9.149 3.638l.732-.682c-2.469-2.649-5.781-3.956-9.881-3.956zm9.151 3.639c2.268 2.417 3.451 5.753 3.497 10.07l1-.011c-.048-4.497-1.286-8.098-3.768-10.743zm3.497 10.064v5.531h1v-5.53zm0 5.531c0 4.396-1.162 7.785-3.429 10.23l.733.68c2.483-2.678 3.696-6.336 3.696-10.91zm-3.429 10.23c-2.247 2.426-5.36 3.661-9.407 3.661v1c4.266 0 7.668-1.312 10.14-3.98zM154.05 61.5h-8.836v1h8.836zm-2.445-27.883v22.664h1V33.617zm.5 23.164h2.062v-1h-2.062zm2.062 0c2.371 0 4.174-.62 5.246-1.997l-.789-.615c-.802 1.03-2.234 1.612-4.457 1.612zm5.248-2c1.041-1.353 1.533-3.587 1.58-6.578l-1-.016c-.046 2.947-.538 4.9-1.373 5.985zm1.58-6.586v-5.93h-1v5.93zm0-5.93c0-3.2-.44-5.559-1.428-6.946l-.815.58c.793 1.113 1.243 3.192 1.243 6.367zm-1.427-6.943c-1.013-1.44-2.707-2.14-4.941-2.205l-.029 1c2.048.06 3.384.688 4.152 1.78zm-4.955-2.205h-2.508v1h2.508z"
          fill="#000"/>
    <path d="M12.938 14.316c-.086 1.946-.633 3.418-1.641 4.418s-2.43 1.5-4.266 1.5c-1.93 0-3.41-.632-4.441-1.898-1.024-1.273-1.535-3.086-1.535-5.438v-2.87c0-2.344.53-4.15 1.593-5.415 1.063-1.273 2.54-1.91 4.43-1.91 1.86 0 3.27.52 4.23 1.559.97 1.039 1.52 2.531 1.653 4.476H9.504c-.031-1.203-.219-2.031-.563-2.484-.336-.461-.957-.691-1.863-.691-.922 0-1.574.324-1.957.972-.383.64-.586 1.7-.61 3.176v3.223c0 1.695.188 2.859.563 3.492.383.633 1.035.949 1.957.949.907 0 1.532-.219 1.875-.656.344-.446.54-1.246.586-2.403zm6.646 2.825h6.047V20h-9.492V2.937h3.445zM32.3 20h-3.446V2.937h3.446zm15.54-5.684c-.085 1.946-.632 3.418-1.64 4.418s-2.43 1.5-4.266 1.5c-1.93 0-3.41-.632-4.441-1.898-1.024-1.273-1.535-3.086-1.535-5.438v-2.87c0-2.344.531-4.15 1.593-5.415 1.063-1.273 2.54-1.91 4.43-1.91 1.86 0 3.27.52 4.23 1.559.97 1.039 1.52 2.531 1.653 4.476h-3.457c-.031-1.203-.219-2.031-.563-2.484-.336-.461-.957-.691-1.863-.691-.922 0-1.574.324-1.957.972-.383.64-.586 1.7-.61 3.176v3.223c0 1.695.188 2.859.563 3.492.383.633 1.035.949 1.957.949.907 0 1.532-.219 1.875-.656.344-.446.54-1.246.586-2.403zm8.006-.902l-1.359 1.711V20h-3.445V2.937h3.445v7.442l1.09-1.84 3.176-5.602h4.218l-4.886 7.5L63.054 20h-4.09zM82.371 5.81h-4.22V20h-3.456V5.809h-4.149V2.938h11.825zm14.744 7.195c0 2.289-.543 4.066-1.63 5.332-1.077 1.266-2.577 1.898-4.5 1.898-1.913 0-3.417-.625-4.51-1.875-1.095-1.257-1.65-3.015-1.665-5.273v-2.918c0-2.344.543-4.172 1.629-5.484 1.086-1.32 2.594-1.98 4.523-1.98 1.899 0 3.395.648 4.489 1.944 1.093 1.29 1.648 3.102 1.664 5.438zm-3.457-2.86c0-1.539-.22-2.683-.657-3.433s-1.117-1.125-2.039-1.125c-.914 0-1.59.363-2.027 1.09-.438.719-.664 1.816-.68 3.293v3.035c0 1.492.223 2.594.668 3.305.446.703 1.133 1.054 2.063 1.054.898 0 1.566-.344 2.004-1.031.437-.695.66-1.77.668-3.223z"
          fill="#dfdfdf"/>
    <path d="M12.938 14.316l.499.022.023-.522h-.523zM2.59 18.336l-.39.313.002.003zm.058-13.723l.383.322.001-.001zm8.66-.351l-.366.34zm1.653 4.476v.5h.535l-.036-.534zm-3.457 0l-.5.013.013.487h.487zM8.94 6.254l-.404.294.006.008zm-3.82.281l.43.257v-.003zm-.61 3.176l-.5-.008v.008zm.563 6.715l-.43.255.002.004zm3.832.293l.393.309.003-.004zm.586-2.403v-.5h-.48l-.02.48zm2.946-.022c-.083 1.867-.603 3.202-1.493 4.085l.704.71c1.126-1.117 1.699-2.727 1.788-4.75zm-1.493 4.085c-.89.882-2.17 1.355-3.914 1.355v1c1.928 0 3.491-.527 4.618-1.645zM7.03 19.734c-1.81 0-3.135-.587-4.054-1.714l-.775.632c1.144 1.404 2.78 2.082 4.83 2.082zM2.98 18.023c-.927-1.153-1.425-2.838-1.425-5.125h-1c0 2.417.525 4.357 1.645 5.751zm-1.425-5.125v-2.87h-1v2.87zm0-2.87c0-2.275.516-3.949 1.476-5.093l-.766-.643C1.101 5.679.555 7.614.555 10.027zm1.477-5.094c.954-1.143 2.28-1.73 4.046-1.73v-1c-2.016 0-3.642.685-4.813 2.089zm4.046-1.73c1.766 0 3.025.49 3.864 1.397l.734-.679c-1.083-1.17-2.645-1.719-4.598-1.719zm3.865 1.399c.866.928 1.391 2.296 1.52 4.17l.997-.069c-.138-2.017-.714-3.634-1.786-4.783zm2.018 3.635H9.504v1h3.457zm-2.957.487c-.032-1.213-.217-2.184-.664-2.773l-.797.604c.24.317.43 1.002.461 2.195zM9.345 5.96c-.474-.651-1.297-.897-2.267-.897v1c.842 0 1.262.216 1.46.486zm-2.267-.897c-1.052 0-1.893.382-2.387 1.219l.86.508c.272-.46.736-.727 1.527-.727zM4.692 6.28c-.454.759-.657 1.93-.68 3.424l1 .016c.023-1.46.226-2.405.538-2.927zm-.68 3.432v3.223h1V9.71zm0 3.223c0 .863.047 1.607.147 2.224.098.61.252 1.13.485 1.523l.86-.51c-.142-.24-.269-.62-.358-1.172-.088-.548-.134-1.234-.134-2.065zm.634 3.75c.497.821 1.338 1.191 2.385 1.191v-1c-.796 0-1.26-.263-1.529-.708zm2.385 1.191c.964 0 1.783-.23 2.268-.847l-.786-.618c-.202.257-.633.465-1.482.465zm2.271-.85c.446-.578.642-1.518.69-2.688l-1-.04c-.046 1.142-.24 1.803-.482 2.116zm.19-2.209h3.446v-1H9.492zm10.092 2.325h-.5v.5h.5zm6.047 0h.5v-.5h-.5zm0 2.859v.5h.5V20zm-9.492 0h-.5v.5h.5zm0-17.063v-.5h-.5v.5zm3.445 0h.5v-.5h-.5zm0 14.704h6.047v-1h-6.047zm5.547-.5V20h1v-2.86zm.5 2.359h-9.492v1h9.492zm-8.992.5V2.937h-1V20zm-.5-16.563h3.445v-1h-3.445zm2.945-.5v14.204h1V2.937zM32.3 20v.5h.5V20zm-3.446 0h-.5v.5h.5zm0-17.063v-.5h-.5v.5zm3.446 0h.5v-.5h-.5zm0 16.563h-3.446v1h3.446zm-2.946.5V2.937h-1V20zm-.5-16.563h3.446v-1h-3.446zm2.946-.5V20h1V2.937zm16.04 11.38l.5.021.023-.522h-.522zm-10.347 4.019l-.39.313.002.003zm.058-13.723l.383.322.001-.001zm8.66-.351l-.366.34zm1.653 4.476v.5h.535l-.036-.534zm-3.457 0l-.5.013.013.487h.487zm-.563-2.484l-.404.294.006.008zm-3.82.281l.43.257v-.003zm-.61 3.176l-.5-.008v.008zm.563 6.715l-.43.255.002.004zm3.832.293l.393.309.003-.004zm.586-2.403v-.5h-.48l-.02.48zm2.946-.022c-.082 1.867-.603 3.202-1.493 4.085l.704.71c1.126-1.117 1.699-2.727 1.788-4.75zM45.85 18.38c-.89.882-2.17 1.355-3.914 1.355v1c1.928 0 3.491-.527 4.618-1.645zm-3.914 1.355c-1.81 0-3.135-.587-4.054-1.714l-.775.632c1.144 1.404 2.78 2.082 4.83 2.082zm-4.051-1.711c-.927-1.153-1.425-2.838-1.425-5.125h-1c0 2.417.525 4.357 1.645 5.751zm-1.425-5.125v-2.87h-1v2.87zm0-2.87c0-2.275.516-3.949 1.476-5.093l-.765-.643c-1.165 1.387-1.711 3.322-1.711 5.735zm1.477-5.094c.954-1.143 2.28-1.73 4.046-1.73v-1c-2.016 0-3.642.685-4.813 2.089zm4.046-1.73c1.766 0 3.024.49 3.864 1.397l.734-.679c-1.083-1.17-2.645-1.719-4.598-1.719zm3.865 1.399c.866.928 1.391 2.296 1.52 4.17l.997-.069c-.138-2.017-.714-3.634-1.786-4.783zm2.018 3.635h-3.457v1h3.457zm-2.957.487c-.032-1.213-.217-2.184-.664-2.773l-.797.604c.24.317.43 1.002.461 2.195zm-.659-2.766c-.474-.651-1.297-.897-2.267-.897v1c.842 0 1.262.216 1.46.486zm-2.267-.897c-1.052 0-1.893.382-2.387 1.219l.86.508c.272-.46.736-.727 1.527-.727zM39.596 6.28c-.454.759-.656 1.93-.68 3.424l1 .016c.023-1.46.226-2.405.538-2.927zm-.68 3.432v3.223h1V9.71zm0 3.223c0 .863.047 1.607.147 2.224.098.61.252 1.13.485 1.523l.86-.51c-.142-.24-.269-.62-.358-1.172-.088-.548-.134-1.234-.134-2.065zm.634 3.75c.497.821 1.338 1.191 2.385 1.191v-1c-.796 0-1.26-.263-1.529-.708zm2.385 1.191c.964 0 1.783-.23 2.268-.847l-.786-.618c-.202.257-.633.465-1.482.465zm2.271-.85c.446-.578.642-1.518.69-2.688l-1-.04c-.046 1.142-.24 1.803-.482 2.116zm.19-2.209h3.446v-1h-3.446zm11.451-1.402l.452-.214-.343-.726-.5.629zm-1.359 1.711l-.392-.311-.108.136v.175zm0 4.875v.5h.5V20zm-3.445 0h-.5v.5h.5zm0-17.063v-.5h-.5v.5zm3.445 0h.5v-.5h-.5zm0 7.442h-.5v1.825l.93-1.57zm1.09-1.84l.43.255.005-.008zm3.176-5.602v-.5h-.292l-.143.254zm4.218 0l.42.273.503-.773h-.923zm-4.886 7.5l-.42-.273-.159.245.135.259zM63.054 20v.5h.824l-.38-.73zm-4.09 0l-.451.214.135.286h.316zm-3.508-6.897l-1.36 1.711.783.622 1.36-1.71zm-1.468 2.022V20h1v-4.875zm.5 4.375h-3.445v1h3.445zm-2.945.5V2.937h-1V20zm-.5-16.563h3.445v-1h-3.445zm2.945-.5v7.442h1V2.937zm.93 7.697l1.09-1.84-.86-.51-1.09 1.84zm1.095-1.848l3.176-5.602-.87-.493-3.176 5.601zm2.74-5.349h4.22v-1h-4.22zm3.8-.772l-4.886 7.5.837.545 4.887-7.5zm-4.911 8.003l4.969 9.562.887-.46-4.969-9.563zm5.412 8.832h-4.09v1h4.09zm-3.638.286L56.3 13.2l-.904.428 3.118 6.586zM82.371 5.81v.5h.5v-.5zm-4.22 0v-.5h-.5v.5zm0 14.191v.5h.5V20zm-3.456 0h-.5v.5h.5zm0-14.191h.5v-.5h-.5zm-4.149 0h-.5v.5h.5zm0-2.872v-.5h-.5v.5zm11.825 0h.5v-.5h-.5zm0 2.372h-4.22v1h4.22zm-4.72.5V20h1V5.809zm.5 13.691h-3.456v1h3.457zm-2.956.5V5.809h-1V20zm-.5-14.691h-4.149v1h4.149zm-3.649.5V2.937h-1V5.81zm-.5-2.372h11.825v-1H70.546zm11.325-.5V5.81h1V2.937zm13.615 15.399l-.38-.326v.002zm-9.012.023l-.377.328v.002zm-1.664-5.273h-.5v.003zm1.629-8.402l.385.318h.001zm9.012-.036l-.383.323h.001zm1.664 5.438h.5v-.003zm-8.18-3.41l.427.26.001-.002zm-.68 3.293l-.5-.006v.006zm.668 6.34l-.423.265v.002zm4.067.023l.422.268v-.002zm.668-3.223l.5.003v-.003zm2.957-.105c0 2.214-.525 3.86-1.509 5.006l.76.651c1.188-1.385 1.749-3.293 1.749-5.657zm-1.51 5.008c-.968 1.136-2.318 1.722-4.12 1.722v1c2.044 0 3.693-.679 4.881-2.074zm-4.12 1.722c-1.793 0-3.15-.58-4.135-1.704l-.752.659c1.203 1.375 2.854 2.045 4.888 2.045zm-4.134-1.703c-.991-1.14-1.526-2.768-1.541-4.949l-1 .007c.016 2.335.59 4.223 1.787 5.598zm-1.541-4.945v-2.918h-1v2.918zm0-2.918c0-2.27.526-3.971 1.514-5.166l-.77-.637c-1.184 1.43-1.744 3.386-1.744 5.803zm1.515-5.167c.978-1.189 2.336-1.798 4.137-1.798v-1c-2.057 0-3.715.711-4.91 2.163zm4.137-1.798c1.771 0 3.12.598 4.106 1.768l.765-.645c-1.2-1.424-2.845-2.123-4.87-2.123zm4.107 1.769c.994 1.17 1.53 2.854 1.546 5.117l1-.006c-.016-2.41-.589-4.35-1.783-5.758zm1.546 5.114v2.918h1v-2.918zm-2.457.058c0-1.568-.22-2.82-.725-3.685l-.863.504c.37.635.588 1.672.588 3.181zm-.725-3.685c-.533-.915-1.384-1.373-2.47-1.373v1c.757 0 1.265.292 1.607.877zm-2.47-1.373c-1.074 0-1.92.441-2.456 1.332l.856.516c.34-.563.844-.848 1.6-.848zm-2.455 1.33c-.508.834-.737 2.04-.753 3.547l1 .011c.016-1.446.24-2.435.607-3.038zm-.753 3.553v3.035h1V9.969zm0 3.035c0 1.522.224 2.739.745 3.57l.847-.53c-.37-.592-.592-1.578-.592-3.04zm.746 3.572c.549.867 1.408 1.287 2.485 1.287v-1c-.782 0-1.299-.283-1.64-.822zm2.485 1.287c1.048 0 1.886-.414 2.426-1.263l-.844-.536c-.335.526-.834.8-1.582.8zm2.427-1.265c.512-.814.737-2.002.745-3.486l-1-.005c-.008 1.422-.229 2.382-.591 2.959zm.745-3.489v-2.965h-1v2.965z"
          fill="#000"/>
</svg>
